<svg width="305" height="36" fill="none" xmlns="http://www.w3.org/2000/svg"><path opacity=".6" d="M107.24 14l2.892-8.64h1.488l2.892 8.64h-1.11l-2.706-8.016h.336L108.35 14h-1.11zm1.392-2.022v-1.002h4.488v1.002h-4.488zM115.34 14V7.52h2.76c.164 0 .34.01.528.03.192.016.366.046.522.09.348.092.634.282.858.57.228.284.342.644.342 1.08 0 .244-.038.456-.114.636-.072.18-.176.336-.312.468a1.295 1.295 0 01-.414.276c.14.024.282.078.426.162.228.124.406.298.534.522.132.224.198.51.198.858 0 .44-.106.804-.318 1.092a1.62 1.62 0 01-.876.588 2.767 2.767 0 01-.516.09c-.188.012-.37.018-.546.018h-3.072zm1.08-.87h1.932c.084 0 .184-.008.3-.024.12-.016.226-.036.318-.06a.716.716 0 00.45-.336c.096-.164.144-.342.144-.534 0-.256-.072-.464-.216-.624a.924.924 0 00-.558-.3 1.174 1.174 0 00-.276-.042 6.261 6.261 0 00-.258-.006h-1.836v1.926zm0-2.808h1.608c.112 0 .23-.006.354-.018.124-.016.232-.042.324-.078a.72.72 0 00.402-.336c.088-.16.132-.334.132-.522 0-.208-.048-.39-.144-.546a.716.716 0 00-.426-.33 1.318 1.318 0 00-.432-.078 7.872 7.872 0 00-.3-.012h-1.518v1.92zM123.349 14V8.492h-2.256V7.52h5.58v.972h-2.256V14h-1.068zm6.863.18c-.644 0-1.2-.146-1.668-.438a2.902 2.902 0 01-1.074-1.212c-.252-.516-.378-1.108-.378-1.776 0-.68.128-1.276.384-1.788s.618-.91 1.086-1.194c.468-.288 1.018-.432 1.65-.432.648 0 1.206.146 1.674.438.468.288.826.69 1.074 1.206.252.512.378 1.102.378 1.77 0 .676-.126 1.272-.378 1.788a2.897 2.897 0 01-1.08 1.206c-.468.288-1.024.432-1.668.432zm0-1.014c.672 0 1.172-.224 1.5-.672.328-.448.492-1.028.492-1.74 0-.732-.166-1.314-.498-1.746-.332-.436-.83-.654-1.494-.654-.452 0-.824.102-1.116.306-.292.204-.51.486-.654.846-.144.36-.216.776-.216 1.248 0 .728.168 1.312.504 1.752.336.44.83.66 1.482.66zm7.183 1.014c-.608 0-1.12-.15-1.536-.45a2.846 2.846 0 01-.948-1.23 4.587 4.587 0 01-.318-1.746c0-.652.106-1.236.318-1.752.216-.516.532-.922.948-1.218.42-.296.934-.444 1.542-.444.6 0 1.116.15 1.548.45.436.296.77.702 1.002 1.218.232.516.348 1.098.348 1.746 0 .648-.116 1.23-.348 1.746a2.927 2.927 0 01-1.002 1.23c-.432.3-.95.45-1.554.45zm-2.982 2.7V7.52h.954v4.77h.12v4.59h-1.074zm2.85-3.678c.428 0 .782-.108 1.062-.324.28-.216.49-.508.63-.876.14-.372.21-.788.21-1.248 0-.456-.07-.868-.21-1.236a1.879 1.879 0 00-.636-.876c-.284-.216-.646-.324-1.086-.324-.42 0-.768.104-1.044.312-.276.204-.482.49-.618.858a3.607 3.607 0 00-.204 1.266c0 .472.066.894.198 1.266.136.368.344.658.624.87.28.208.638.312 1.074.312zm6.841.978c-.656 0-1.214-.146-1.674-.438a2.85 2.85 0 01-1.044-1.218c-.24-.516-.364-1.104-.372-1.764.008-.676.134-1.27.378-1.782a2.836 2.836 0 011.062-1.206c.46-.288 1.014-.432 1.662-.432.684 0 1.272.168 1.764.504.496.336.828.796.996 1.38l-1.056.318a1.736 1.736 0 00-.666-.876 1.815 1.815 0 00-1.05-.312c-.444 0-.81.104-1.098.312a1.808 1.808 0 00-.642.852c-.14.36-.212.774-.216 1.242.008.72.174 1.302.498 1.746.328.44.814.66 1.458.66.424 0 .776-.096 1.056-.288.28-.196.492-.478.636-.846l1.08.282c-.224.604-.574 1.066-1.05 1.386-.476.32-1.05.48-1.722.48zm3.751-.18l.006-6.48h1.08v3.12l2.718-3.12h1.386l-2.862 3.24 3.198 3.24h-1.494l-2.946-3.12V14h-1.086zm11.187-6.48V14h-1.032V9.224L154.614 14h-.882V7.52h1.032v4.71l3.402-4.71h.876zm4.231-.756c-.3 0-.574-.074-.822-.222a1.706 1.706 0 01-.594-.588 1.585 1.585 0 01-.222-.828h.864c0 .212.076.394.228.546a.745.745 0 00.546.228.732.732 0 00.546-.228.745.745 0 00.228-.546h.864c0 .304-.074.58-.222.828-.144.244-.342.44-.594.588a1.574 1.574 0 01-.822.222zm2.514.756V14h-1.032V9.224L161.359 14h-.882V7.52h1.032v4.71l3.402-4.71h.876zm3.122 7.92v-2.322c.364 0 .624-.118.78-.354.156-.24.282-.634.378-1.182.064-.344.116-.712.156-1.104.04-.392.074-.828.102-1.308a81.1 81.1 0 00.09-1.65h4.464v5.598h.63v2.322h-1.02V14h-4.56v1.44h-1.02zm1.644-2.322h3.258V8.402h-2.43a41.163 41.163 0 01-.12 1.818c-.024.308-.054.6-.09.876-.032.272-.07.516-.114.732-.052.3-.112.554-.18.762a1.277 1.277 0 01-.324.528zm11.224-5.598V14h-1.032V9.224L177.349 14h-.882V7.52h1.032v4.71l3.402-4.71h.876zm3.763 6.66c-.64 0-1.206-.138-1.698-.414a3.094 3.094 0 01-1.164-1.152l.852-.552c.236.356.518.63.846.822.328.188.702.282 1.122.282.44 0 .79-.1 1.05-.3a.99.99 0 00.39-.822c0-.256-.064-.452-.192-.588-.128-.136-.312-.23-.552-.282a4.104 4.104 0 00-.858-.078h-.672v-.882h.666c.42 0 .762-.068 1.026-.204.264-.136.396-.368.396-.696 0-.336-.124-.58-.372-.732a1.592 1.592 0 00-.876-.234c-.36 0-.704.076-1.032.228a2.95 2.95 0 00-.846.564l-.648-.726a3.515 3.515 0 011.158-.792c.44-.188.918-.282 1.434-.282.416 0 .796.074 1.14.222.348.144.624.358.828.642.208.28.312.622.312 1.026 0 .344-.08.65-.24.918-.16.268-.396.502-.708.702l-.042-.378c.264.064.482.182.654.354.176.168.306.368.39.6.084.232.126.474.126.726 0 .424-.112.788-.336 1.092-.22.3-.518.532-.894.696-.376.16-.796.24-1.26.24zm5.409 0c-.484 0-.89-.088-1.218-.264a1.88 1.88 0 01-.738-.708 1.927 1.927 0 01-.246-.96c0-.34.064-.634.192-.882.132-.252.316-.46.552-.624.236-.168.518-.3.846-.396a9.676 9.676 0 011.032-.216 35.38 35.38 0 011.164-.174c.392-.052.758-.102 1.098-.15l-.384.222c.012-.576-.104-1.002-.348-1.278-.24-.276-.656-.414-1.248-.414-.392 0-.736.09-1.032.27-.292.176-.498.464-.618.864l-1.014-.306c.156-.568.458-1.014.906-1.338.448-.324 1.038-.486 1.77-.486.588 0 1.092.106 1.512.318.424.208.728.524.912.948.092.2.15.418.174.654.024.232.036.476.036.732V14h-.948v-1.554l.222.144c-.244.524-.586.92-1.026 1.188-.436.268-.968.402-1.596.402zm.162-.894c.384 0 .716-.068.996-.204.284-.14.512-.322.684-.546.172-.228.284-.476.336-.744.06-.2.092-.422.096-.666.008-.248.012-.438.012-.57l.372.162c-.348.048-.69.094-1.026.138-.336.044-.654.092-.954.144-.3.048-.57.106-.81.174a2.639 2.639 0 00-.498.216 1.131 1.131 0 00-.372.342.89.89 0 00-.138.51c0 .176.044.344.132.504.092.16.232.29.42.39.192.1.442.15.75.15zm7.296-6.522c-.3 0-.574-.074-.822-.222a1.706 1.706 0 01-.594-.588 1.585 1.585 0 01-.222-.828h.864c0 .212.076.394.228.546a.745.745 0 00.546.228.732.732 0 00.546-.228.745.745 0 00.228-.546h.864c0 .304-.074.58-.222.828-.144.244-.342.44-.594.588a1.574 1.574 0 01-.822.222zm2.514.756V14h-1.032V9.224L196.493 14h-.882V7.52h1.032v4.71l3.402-4.71h.876zm1.434 6.48V7.52h1.068v2.73h3.408V7.52h1.068V14h-1.068v-2.736h-3.408V14h-1.068zm14.451-6.48V14h-1.032V9.224L212.378 14h-.882V7.52h1.032v4.71l3.402-4.71h.876zm1.435 6.48V7.52h1.068v2.73h3.408V7.52h1.068V14h-1.068v-2.736h-3.408V14h-1.068zm8.7 0V8.492h-2.256V7.52h5.58v.972h-2.256V14h-1.068zm7.028.18c-.636 0-1.192-.14-1.668-.42a2.942 2.942 0 01-1.104-1.182c-.264-.508-.396-1.1-.396-1.776 0-.708.13-1.32.39-1.836.26-.52.622-.92 1.086-1.2.468-.284 1.016-.426 1.644-.426.652 0 1.206.15 1.662.45.46.3.804.728 1.032 1.284.232.556.332 1.218.3 1.986h-1.08v-.384c-.012-.796-.174-1.39-.486-1.782-.312-.396-.776-.594-1.392-.594-.66 0-1.162.212-1.506.636-.344.424-.516 1.032-.516 1.824 0 .764.172 1.356.516 1.776.344.42.834.63 1.47.63.428 0 .8-.098 1.116-.294a2 2 0 00.744-.846l1.026.354a2.906 2.906 0 01-1.14 1.332 3.16 3.16 0 01-1.698.468zm-2.394-3.12v-.858h4.788v.858h-4.788zm9.412 3.12c-.608 0-1.12-.15-1.536-.45a2.846 2.846 0 01-.948-1.23 4.587 4.587 0 01-.318-1.746c0-.652.106-1.236.318-1.752.216-.516.532-.922.948-1.218.42-.296.934-.444 1.542-.444.6 0 1.116.15 1.548.45.436.296.77.702 1.002 1.218.232.516.348 1.098.348 1.746 0 .648-.116 1.23-.348 1.746a2.927 2.927 0 01-1.002 1.23c-.432.3-.95.45-1.554.45zm-2.982 2.7V7.52h.954v4.77h.12v4.59h-1.074zm2.85-3.678c.428 0 .782-.108 1.062-.324.28-.216.49-.508.63-.876.14-.372.21-.788.21-1.248 0-.456-.07-.868-.21-1.236a1.879 1.879 0 00-.636-.876c-.284-.216-.646-.324-1.086-.324-.42 0-.768.104-1.044.312-.276.204-.482.49-.618.858a3.607 3.607 0 00-.204 1.266c0 .472.066.894.198 1.266.136.368.344.658.624.87.28.208.638.312 1.074.312zm4.111.798l-.006-6.48h1.074v2.346h1.398c.188 0 .38.004.576.012.196.008.366.026.51.054.336.064.63.176.882.336.252.16.448.378.588.654.14.272.21.61.21 1.014 0 .56-.146 1.004-.438 1.332-.288.324-.666.54-1.134.648-.16.036-.344.06-.552.072-.204.008-.398.012-.582.012h-2.526zm1.068-.882h1.476c.12 0 .254-.004.402-.012.148-.008.28-.028.396-.06.204-.06.386-.178.546-.354.164-.176.246-.428.246-.756 0-.332-.08-.588-.24-.768a1.104 1.104 0 00-.618-.354 2.122 2.122 0 00-.366-.054 5.877 5.877 0 00-.366-.012h-1.476v2.37zm8.051 1.062c-.636 0-1.192-.14-1.668-.42a2.942 2.942 0 01-1.104-1.182c-.264-.508-.396-1.1-.396-1.776 0-.708.13-1.32.39-1.836.26-.52.622-.92 1.086-1.2.468-.284 1.016-.426 1.644-.426.652 0 1.206.15 1.662.45.46.3.804.728 1.032 1.284.232.556.332 1.218.3 1.986h-1.08v-.384c-.012-.796-.174-1.39-.486-1.782-.312-.396-.776-.594-1.392-.594-.66 0-1.162.212-1.506.636-.344.424-.516 1.032-.516 1.824 0 .764.172 1.356.516 1.776.344.42.834.63 1.47.63.428 0 .8-.098 1.116-.294a2 2 0 00.744-.846l1.026.354a2.906 2.906 0 01-1.14 1.332 3.16 3.16 0 01-1.698.468zm-2.394-3.12v-.858h4.788v.858h-4.788zm9.412 3.12c-.608 0-1.12-.15-1.536-.45a2.846 2.846 0 01-.948-1.23 4.587 4.587 0 01-.318-1.746c0-.652.106-1.236.318-1.752.216-.516.532-.922.948-1.218.42-.296.934-.444 1.542-.444.6 0 1.116.15 1.548.45.436.296.77.702 1.002 1.218.232.516.348 1.098.348 1.746 0 .648-.116 1.23-.348 1.746a2.927 2.927 0 01-1.002 1.23c-.432.3-.95.45-1.554.45zm-2.982 2.7V7.52h.954v4.77h.12v4.59h-1.074zm2.85-3.678c.428 0 .782-.108 1.062-.324.28-.216.49-.508.63-.876.14-.372.21-.788.21-1.248 0-.456-.07-.868-.21-1.236a1.879 1.879 0 00-.636-.876c-.284-.216-.646-.324-1.086-.324-.42 0-.768.104-1.044.312-.276.204-.482.49-.618.858a3.607 3.607 0 00-.204 1.266c0 .472.066.894.198 1.266.136.368.344.658.624.87.28.208.638.312 1.074.312zm5.953.978c-.484 0-.89-.088-1.218-.264a1.88 1.88 0 01-.738-.708 1.927 1.927 0 01-.246-.96c0-.34.064-.634.192-.882.132-.252.316-.46.552-.624.236-.168.518-.3.846-.396a9.676 9.676 0 011.032-.216 35.38 35.38 0 011.164-.174c.392-.052.758-.102 1.098-.15l-.384.222c.012-.576-.104-1.002-.348-1.278-.24-.276-.656-.414-1.248-.414-.392 0-.736.09-1.032.27-.292.176-.498.464-.618.864l-1.014-.306c.156-.568.458-1.014.906-1.338.448-.324 1.038-.486 1.77-.486.588 0 1.092.106 1.512.318.424.208.728.524.912.948.092.2.15.418.174.654.024.232.036.476.036.732V14h-.948v-1.554l.222.144c-.244.524-.586.92-1.026 1.188-.436.268-.968.402-1.596.402zm.162-.894c.384 0 .716-.068.996-.204.284-.14.512-.322.684-.546.172-.228.284-.476.336-.744.06-.2.092-.422.096-.666.008-.248.012-.438.012-.57l.372.162c-.348.048-.69.094-1.026.138-.336.044-.654.092-.954.144-.3.048-.57.106-.81.174a2.639 2.639 0 00-.498.216 1.131 1.131 0 00-.372.342.89.89 0 00-.138.51c0 .176.044.344.132.504.092.16.232.29.42.39.192.1.442.15.75.15zM110.57 30.18c-.656 0-1.214-.146-1.674-.438a2.85 2.85 0 01-1.044-1.218c-.24-.516-.364-1.104-.372-1.764.008-.676.134-1.27.378-1.782a2.836 2.836 0 011.062-1.206c.46-.288 1.014-.432 1.662-.432.684 0 1.272.168 1.764.504.496.336.828.796.996 1.38l-1.056.318a1.736 1.736 0 00-.666-.876 1.815 1.815 0 00-1.05-.312c-.444 0-.81.104-1.098.312a1.808 1.808 0 00-.642.852c-.14.36-.212.774-.216 1.242.008.72.174 1.302.498 1.746.328.44.814.66 1.458.66.424 0 .776-.096 1.056-.288.28-.196.492-.478.636-.846l1.08.282c-.224.604-.574 1.066-1.05 1.386-.476.32-1.05.48-1.722.48zm8.895 0c-.608 0-1.12-.15-1.536-.45a2.846 2.846 0 01-.948-1.23 4.587 4.587 0 01-.318-1.746c0-.652.106-1.236.318-1.752.216-.516.532-.922.948-1.218.42-.296.934-.444 1.542-.444.6 0 1.116.15 1.548.45.436.296.77.702 1.002 1.218.232.516.348 1.098.348 1.746 0 .648-.116 1.23-.348 1.746a2.927 2.927 0 01-1.002 1.23c-.432.3-.95.45-1.554.45zm-2.982 2.7v-9.36h.954v4.77h.12v4.59h-1.074zm2.85-3.678c.428 0 .782-.108 1.062-.324.28-.216.49-.508.63-.876.14-.372.21-.788.21-1.248 0-.456-.07-.868-.21-1.236a1.879 1.879 0 00-.636-.876c-.284-.216-.646-.324-1.086-.324-.42 0-.768.104-1.044.312-.276.204-.482.49-.618.858a3.607 3.607 0 00-.204 1.266c0 .472.066.894.198 1.266.136.368.344.658.624.87.28.208.638.312 1.074.312zm6.919.978c-.636 0-1.192-.14-1.668-.42a2.942 2.942 0 01-1.104-1.182c-.264-.508-.396-1.1-.396-1.776 0-.708.13-1.32.39-1.836.26-.52.622-.92 1.086-1.2.468-.284 1.016-.426 1.644-.426.652 0 1.206.15 1.662.45.46.3.804.728 1.032 1.284.232.556.332 1.218.3 1.986h-1.08v-.384c-.012-.796-.174-1.39-.486-1.782-.312-.396-.776-.594-1.392-.594-.66 0-1.162.212-1.506.636-.344.424-.516 1.032-.516 1.824 0 .764.172 1.356.516 1.776.344.42.834.63 1.47.63.428 0 .8-.098 1.116-.294a2 2 0 00.744-.846l1.026.354a2.906 2.906 0 01-1.14 1.332 3.16 3.16 0 01-1.698.468zm-2.394-3.12v-.858h4.788v.858h-4.788zm8.161 3.12c-.484 0-.89-.088-1.218-.264a1.88 1.88 0 01-.738-.708 1.927 1.927 0 01-.246-.96c0-.34.064-.634.192-.882.132-.252.316-.46.552-.624.236-.168.518-.3.846-.396a9.676 9.676 0 011.032-.216 35.38 35.38 0 011.164-.174c.392-.052.758-.102 1.098-.15l-.384.222c.012-.576-.104-1.002-.348-1.278-.24-.276-.656-.414-1.248-.414-.392 0-.736.09-1.032.27-.292.176-.498.464-.618.864l-1.014-.306c.156-.568.458-1.014.906-1.338.448-.324 1.038-.486 1.77-.486.588 0 1.092.106 1.512.318.424.208.728.524.912.948.092.2.15.418.174.654.024.232.036.476.036.732V30h-.948v-1.554l.222.144c-.244.524-.586.92-1.026 1.188-.436.268-.968.402-1.596.402zm.162-.894c.384 0 .716-.068.996-.204.284-.14.512-.322.684-.546.172-.228.284-.476.336-.744.06-.2.092-.422.096-.666.008-.248.012-.438.012-.57l.372.162c-.348.048-.69.094-1.026.138-.336.044-.654.092-.954.144-.3.048-.57.106-.81.174a2.639 2.639 0 00-.498.216 1.131 1.131 0 00-.372.342.89.89 0 00-.138.51c0 .176.044.344.132.504.092.16.232.29.42.39.192.1.442.15.75.15zm3.906.714v-.918c.24.044.422.036.546-.024a.583.583 0 00.282-.33c.064-.16.116-.36.156-.6.068-.38.126-.804.174-1.272.052-.468.098-.98.138-1.536.044-.56.084-1.16.12-1.8h4.53V30h-1.068v-5.466h-2.49a41.55 41.55 0 01-.09 1.134c-.032.388-.066.766-.102 1.134-.036.364-.076.704-.12 1.02-.04.312-.084.582-.132.81-.076.392-.182.706-.318.942a.938.938 0 01-.588.45c-.256.072-.602.064-1.038-.024zm12.695-6.48V30h-1.032v-4.776L144.354 30h-.882v-6.48h1.032v4.71l3.402-4.71h.876zm3.762 6.66c-.64 0-1.206-.138-1.698-.414a3.094 3.094 0 01-1.164-1.152l.852-.552c.236.356.518.63.846.822.328.188.702.282 1.122.282.44 0 .791-.1 1.051-.3a.993.993 0 00.389-.822c0-.256-.064-.452-.192-.588-.128-.136-.312-.23-.552-.282a4.104 4.104 0 00-.858-.078h-.672v-.882h.666c.42 0 .762-.068 1.026-.204.264-.136.396-.368.396-.696 0-.336-.124-.58-.371-.732a1.597 1.597 0 00-.877-.234c-.36 0-.704.076-1.032.228a2.95 2.95 0 00-.846.564l-.648-.726a3.515 3.515 0 011.158-.792c.44-.188.918-.282 1.434-.282.416 0 .796.074 1.141.222.347.144.623.358.827.642.208.28.313.622.313 1.026 0 .344-.08.65-.241.918-.16.268-.396.502-.708.702l-.042-.378c.264.064.482.182.655.354.175.168.305.368.39.6.083.232.125.474.125.726 0 .424-.112.788-.336 1.092-.22.3-.518.532-.894.696-.376.16-.796.24-1.26.24zm5.409 0c-.484 0-.89-.088-1.218-.264a1.88 1.88 0 01-.738-.708 1.927 1.927 0 01-.246-.96c0-.34.064-.634.192-.882.132-.252.316-.46.552-.624.236-.168.518-.3.846-.396a9.676 9.676 0 011.032-.216 35.38 35.38 0 011.164-.174c.392-.052.758-.102 1.098-.15l-.384.222c.012-.576-.104-1.002-.348-1.278-.24-.276-.656-.414-1.248-.414-.392 0-.736.09-1.032.27-.292.176-.498.464-.618.864l-1.014-.306c.156-.568.458-1.014.906-1.338.448-.324 1.038-.486 1.77-.486.588 0 1.092.106 1.512.318.424.208.728.524.912.948.092.2.15.418.174.654.024.232.036.476.036.732V30h-.948v-1.554l.222.144c-.244.524-.586.92-1.026 1.188-.436.268-.968.402-1.596.402zm.162-.894c.384 0 .716-.068.996-.204.284-.14.512-.322.684-.546.172-.228.284-.476.336-.744.06-.2.092-.422.096-.666.008-.248.012-.438.012-.57l.372.162c-.348.048-.69.094-1.026.138-.336.044-.654.092-.954.144-.3.048-.57.106-.81.174a2.639 2.639 0 00-.498.216 1.131 1.131 0 00-.372.342.89.89 0 00-.138.51c0 .176.044.344.132.504.092.16.232.29.42.39.192.1.442.15.75.15zm10.026 1.914V30h-5.526v-6.48h1.068v5.466h3.174V23.52h1.068v5.508h1.284V31.2h-1.068zm7.091-7.68V30H174.2v-4.776L170.804 30h-.882v-6.48h1.032v4.71l3.402-4.71h.876zm4.249 6.66c-.636 0-1.192-.14-1.668-.42a2.942 2.942 0 01-1.104-1.182c-.264-.508-.396-1.1-.396-1.776 0-.708.13-1.32.39-1.836.26-.52.622-.92 1.086-1.2.468-.284 1.016-.426 1.644-.426.652 0 1.206.15 1.662.45.46.3.804.728 1.032 1.284.232.556.332 1.218.3 1.986h-1.08v-.384c-.012-.796-.174-1.39-.486-1.782-.312-.396-.776-.594-1.392-.594-.66 0-1.162.212-1.506.636-.344.424-.516 1.032-.516 1.824 0 .764.172 1.356.516 1.776.344.42.834.63 1.47.63.428 0 .8-.098 1.116-.294a2 2 0 00.744-.846l1.026.354a2.906 2.906 0 01-1.14 1.332 3.16 3.16 0 01-1.698.468zm-2.394-3.12v-.858h4.788v.858h-4.788zm9.226-4.296c-.3 0-.574-.074-.822-.222a1.706 1.706 0 01-.594-.588 1.585 1.585 0 01-.222-.828h.864c0 .212.076.394.228.546a.745.745 0 00.546.228.732.732 0 00.546-.228.745.745 0 00.228-.546h.864c0 .304-.074.58-.222.828-.144.244-.342.44-.594.588a1.574 1.574 0 01-.822.222zm2.514.756V30h-1.032v-4.776L184.399 30h-.882v-6.48h1.032v4.71l3.402-4.71h.876zm3.596 6.48v-6.48h2.76c.164 0 .34.01.528.03.192.016.366.046.522.09.348.092.634.282.858.57.228.284.342.644.342 1.08 0 .244-.038.456-.114.636-.072.18-.176.336-.312.468a1.295 1.295 0 01-.414.276c.14.024.282.078.426.162.228.124.406.298.534.522.132.224.198.51.198.858 0 .44-.106.804-.318 1.092a1.62 1.62 0 01-.876.588 2.767 2.767 0 01-.516.09c-.188.012-.37.018-.546.018h-3.072zm1.08-.87h1.932c.084 0 .184-.008.3-.024.12-.016.226-.036.318-.06a.716.716 0 00.45-.336c.096-.164.144-.342.144-.534 0-.256-.072-.464-.216-.624a.924.924 0 00-.558-.3 1.174 1.174 0 00-.276-.042 6.261 6.261 0 00-.258-.006h-1.836v1.926zm0-2.808h1.608c.112 0 .23-.006.354-.018.124-.016.232-.042.324-.078a.72.72 0 00.402-.336c.088-.16.132-.334.132-.522 0-.208-.048-.39-.144-.546a.716.716 0 00-.426-.33 1.318 1.318 0 00-.432-.078 7.872 7.872 0 00-.3-.012h-1.518v1.92zM200.879 30v-8.64h1.068v4.056l3.78-4.056h1.344l-3.924 4.194 4.23 4.446h-1.38l-4.05-4.224V30h-1.068zm8.938.18c-.484 0-.89-.088-1.218-.264a1.88 1.88 0 01-.738-.708 1.927 1.927 0 01-.246-.96c0-.34.064-.634.192-.882.132-.252.316-.46.552-.624.236-.168.518-.3.846-.396a9.676 9.676 0 011.032-.216 35.38 35.38 0 011.164-.174c.392-.052.758-.102 1.098-.15l-.384.222c.012-.576-.104-1.002-.348-1.278-.24-.276-.656-.414-1.248-.414-.392 0-.736.09-1.032.27-.292.176-.498.464-.618.864l-1.014-.306c.156-.568.458-1.014.906-1.338.448-.324 1.038-.486 1.77-.486.588 0 1.092.106 1.512.318.424.208.728.524.912.948.092.2.15.418.174.654.024.232.036.476.036.732V30h-.948v-1.554l.222.144c-.244.524-.586.92-1.026 1.188-.436.268-.968.402-1.596.402zm.162-.894c.384 0 .716-.068.996-.204.284-.14.512-.322.684-.546.172-.228.284-.476.336-.744.06-.2.092-.422.096-.666.008-.248.012-.438.012-.57l.372.162c-.348.048-.69.094-1.026.138-.336.044-.654.092-.954.144-.3.048-.57.106-.81.174a2.639 2.639 0 00-.498.216 1.131 1.131 0 00-.372.342.89.89 0 00-.138.51c0 .176.044.344.132.504.092.16.232.29.42.39.192.1.442.15.75.15zm3.906.714v-.918c.24.044.422.036.546-.024a.583.583 0 00.282-.33c.064-.16.116-.36.156-.6.068-.38.126-.804.174-1.272.052-.468.098-.98.138-1.536.044-.56.084-1.16.12-1.8h4.53V30h-1.068v-5.466h-2.49a41.55 41.55 0 01-.09 1.134c-.032.388-.066.766-.102 1.134-.036.364-.076.704-.12 1.02-.04.312-.084.582-.132.81-.076.392-.182.706-.318.942a.938.938 0 01-.588.45c-.256.072-.602.064-1.038-.024zm12.695-6.48V30h-1.032v-4.776L222.152 30h-.882v-6.48h1.032v4.71l3.402-4.71h.876zm1.434 6.48v-6.48h1.068v2.73h3.408v-2.73h1.068V30h-1.068v-2.736h-3.408V30h-1.068zm12.289-6.48V30h-1.032v-4.776L235.875 30h-.882v-6.48h1.032v4.71l3.402-4.71h.876zm1.435 6.48v-6.48h1.068v2.73h3.408v-2.73h1.068V30h-1.068v-2.736h-3.408V30h-1.068zm6.984 0v-6.48h4.5v1.014h-3.432V30h-1.068zm8.373.18c-.608 0-1.12-.15-1.536-.45a2.846 2.846 0 01-.948-1.23 4.587 4.587 0 01-.318-1.746c0-.652.106-1.236.318-1.752.216-.516.532-.922.948-1.218.42-.296.934-.444 1.542-.444.6 0 1.116.15 1.548.45.436.296.77.702 1.002 1.218.232.516.348 1.098.348 1.746 0 .648-.116 1.23-.348 1.746a2.927 2.927 0 01-1.002 1.23c-.432.3-.95.45-1.554.45zm-2.982 2.7v-9.36h.954v4.77h.12v4.59h-1.074zm2.85-3.678c.428 0 .782-.108 1.062-.324.28-.216.49-.508.63-.876.14-.372.21-.788.21-1.248 0-.456-.07-.868-.21-1.236a1.879 1.879 0 00-.636-.876c-.284-.216-.646-.324-1.086-.324-.42 0-.768.104-1.044.312-.276.204-.482.49-.618.858a3.607 3.607 0 00-.204 1.266c0 .472.066.894.198 1.266.136.368.344.658.624.87.28.208.638.312 1.074.312zm5.953.978c-.484 0-.89-.088-1.218-.264a1.88 1.88 0 01-.738-.708 1.927 1.927 0 01-.246-.96c0-.34.064-.634.192-.882.132-.252.316-.46.552-.624.236-.168.518-.3.846-.396a9.676 9.676 0 011.032-.216 35.38 35.38 0 011.164-.174c.392-.052.758-.102 1.098-.15l-.384.222c.012-.576-.104-1.002-.348-1.278-.24-.276-.656-.414-1.248-.414-.392 0-.736.09-1.032.27-.292.176-.498.464-.618.864l-1.014-.306c.156-.568.458-1.014.906-1.338.448-.324 1.038-.486 1.77-.486.588 0 1.092.106 1.512.318.424.208.728.524.912.948.092.2.15.418.174.654.024.232.036.476.036.732V30h-.948v-1.554l.222.144c-.244.524-.586.92-1.026 1.188-.436.268-.968.402-1.596.402zm.162-.894c.384 0 .716-.068.996-.204.284-.14.512-.322.684-.546.172-.228.284-.476.336-.744.06-.2.092-.422.096-.666.008-.248.012-.438.012-.57l.372.162c-.348.048-.69.094-1.026.138-.336.044-.654.092-.954.144-.3.048-.57.106-.81.174a2.639 2.639 0 00-.498.216 1.131 1.131 0 00-.372.342.89.89 0 00-.138.51c0 .176.044.344.132.504.092.16.232.29.42.39.192.1.442.15.75.15zm4.026 2.154v-2.322c.364 0 .624-.118.78-.354.156-.24.282-.634.378-1.182.064-.344.116-.712.156-1.104.04-.392.074-.828.102-1.308a81.1 81.1 0 00.09-1.65h4.464v5.598h.63v2.322h-1.02V30h-4.56v1.44h-1.02zm1.644-2.322h3.258v-4.716h-2.43a41.163 41.163 0 01-.12 1.818c-.024.308-.054.6-.09.876-.032.272-.07.516-.114.732-.052.3-.112.554-.18.762a1.277 1.277 0 01-.324.528zm8.729 1.062c-.636 0-1.192-.14-1.668-.42a2.942 2.942 0 01-1.104-1.182c-.264-.508-.396-1.1-.396-1.776 0-.708.13-1.32.39-1.836.26-.52.622-.92 1.086-1.2.468-.284 1.016-.426 1.644-.426.652 0 1.206.15 1.662.45.46.3.804.728 1.032 1.284.232.556.332 1.218.3 1.986h-1.08v-.384c-.012-.796-.174-1.39-.486-1.782-.312-.396-.776-.594-1.392-.594-.66 0-1.162.212-1.506.636-.344.424-.516 1.032-.516 1.824 0 .764.172 1.356.516 1.776.344.42.834.63 1.47.63.428 0 .8-.098 1.116-.294a2 2 0 00.744-.846l1.026.354a2.906 2.906 0 01-1.14 1.332 3.16 3.16 0 01-1.698.468zm-2.394-3.12v-.858h4.788v.858h-4.788z" fill="#fff"/><path d="M2.463 31V7.179h14.11v3.457H5.92v6.716h8.669v3.474H5.92V31H2.463zm14.453 0l7.742-23.821h4.98L37.378 31h-3.59L26.66 9.263h.894L20.506 31h-3.59zm4.02-5.376V22.38h12.44v3.243h-12.44zM39.686 31V7.179h9.627c.232 0 .518.01.86.033.342.01.667.044.976.099 1.324.21 2.426.662 3.309 1.356a6.386 6.386 0 012.002 2.63c.44 1.06.661 2.228.661 3.508 0 1.897-.485 3.534-1.456 4.913-.97 1.367-2.426 2.222-4.367 2.564l-1.406.166h-6.75V31h-3.457zm13.928 0l-4.698-9.694 3.49-.893L57.569 31h-3.954zM43.143 19.172h6.038c.22 0 .463-.011.728-.033.275-.022.535-.06.777-.116.706-.165 1.274-.469 1.704-.91.43-.452.739-.97.926-1.555a5.715 5.715 0 00.282-1.753 5.54 5.54 0 00-.282-1.737 3.868 3.868 0 00-.926-1.539c-.43-.452-.998-.76-1.704-.926a4.236 4.236 0 00-.777-.132 8.801 8.801 0 00-.728-.034h-6.038v8.735zM60.542 31V7.179h9.363c1.51 0 2.78.308 3.805.926 1.026.618 1.797 1.417 2.316 2.399a6.44 6.44 0 01.777 3.077c0 1.312-.325 2.437-.976 3.374a4.789 4.789 0 01-2.597 1.92l-.033-.811c1.522.375 2.69 1.108 3.507 2.2.816 1.08 1.224 2.343 1.224 3.788 0 1.4-.281 2.62-.843 3.656-.552 1.037-1.362 1.847-2.432 2.432-1.059.573-2.344.86-3.855.86H60.542zm3.507-3.292h6.22c.783 0 1.483-.149 2.1-.447a3.464 3.464 0 001.473-1.273c.364-.563.546-1.23.546-2.002 0-.717-.16-1.362-.48-1.936a3.32 3.32 0 00-1.356-1.373c-.585-.341-1.274-.512-2.068-.512h-6.435v7.543zm0-10.802h5.806c.64 0 1.213-.127 1.72-.38.52-.265.927-.64 1.225-1.126.309-.496.463-1.091.463-1.786 0-.927-.309-1.688-.926-2.283-.618-.596-1.445-.893-2.482-.893H64.05v6.468zM85.297 31v-9.843L77.241 7.18h4.036l5.774 10.008L92.824 7.18h4.037l-8.057 13.978V31h-3.507z" fill="#fff"/></svg>