<svg width="159" height="69" fill="none" xmlns="http://www.w3.org/2000/svg"><path d="M44.854 23V5.073h10.62v2.602h-8.018v5.054h6.523v2.615h-6.523V23h-2.602zm10.877 0l5.826-17.927h3.747L71.131 23h-2.702L63.063 6.641h.673L58.432 23H55.73zm3.025-4.046v-2.44h9.362v2.44h-9.362zM72.866 23V5.073h7.246c.174 0 .39.008.647.024.258.009.502.034.735.075.996.158 1.826.498 2.49 1.021a4.805 4.805 0 011.506 1.98c.332.796.498 1.676.498 2.639 0 1.427-.365 2.66-1.096 3.697-.73 1.03-1.825 1.673-3.286 1.93l-1.058.125h-5.08V23h-2.602zm10.483 0l-3.536-7.296 2.627-.672L86.324 23H83.35zm-7.88-8.902h4.543c.166 0 .349-.008.548-.024.208-.017.403-.046.585-.088.531-.124.959-.352 1.282-.684.324-.34.557-.73.698-1.17a4.183 4.183 0 000-2.627 2.91 2.91 0 00-.698-1.158c-.323-.34-.75-.573-1.282-.697a3.187 3.187 0 00-.585-.1 6.637 6.637 0 00-.548-.025h-4.544v6.573zM88.561 23V5.073h7.047c1.137 0 2.092.232 2.863.697.772.465 1.353 1.066 1.743 1.805.39.73.585 1.502.585 2.316 0 .987-.244 1.834-.734 2.54a3.605 3.605 0 01-1.955 1.443l-.025-.61c1.146.283 2.026.835 2.64 1.656.614.814.921 1.764.921 2.851 0 1.054-.212 1.971-.635 2.752a4.42 4.42 0 01-1.83 1.83c-.797.431-1.764.647-2.9.647h-7.72zm2.64-2.477h4.68c.59 0 1.117-.113 1.582-.337a2.606 2.606 0 001.108-.958c.274-.424.41-.926.41-1.507 0-.54-.12-1.025-.36-1.456A2.5 2.5 0 0097.6 15.23c-.44-.257-.959-.386-1.556-.386h-4.843v5.678zm0-8.13h4.37c.481 0 .912-.096 1.294-.286.39-.2.698-.482.922-.847.232-.373.348-.822.348-1.345 0-.697-.232-1.27-.697-1.718-.465-.448-1.087-.672-1.867-.672h-4.37v4.868zM107.193 23v-7.408l-6.063-10.52h3.037l4.345 7.533 4.345-7.532h3.038l-6.063 10.52V23h-2.639z" fill="#fff"/><path opacity=".6" d="M8.163 50.18c-.86 0-1.59-.19-2.19-.57a3.664 3.664 0 01-1.374-1.584c-.312-.676-.468-1.458-.468-2.346 0-.888.156-1.67.468-2.346a3.664 3.664 0 011.374-1.584c.6-.38 1.33-.57 2.19-.57 1 0 1.822.254 2.466.762.648.508 1.094 1.192 1.338 2.052l-1.086.288c-.176-.644-.49-1.152-.942-1.524-.452-.372-1.044-.558-1.776-.558-.644 0-1.18.146-1.608.438-.428.292-.75.7-.966 1.224-.216.52-.326 1.126-.33 1.818-.004.688.102 1.294.318 1.818.216.52.54.928.972 1.224.432.292.97.438 1.614.438.732 0 1.324-.186 1.776-.558.452-.376.766-.884.942-1.524l1.086.288c-.244.856-.69 1.54-1.338 2.052-.644.508-1.466.762-2.466.762zm6.595-.18v-5.508h-2.255v-.972h5.58v.972h-2.256V50h-1.069zm5.003 2.88l1.254-3.408.018 1.008-2.832-6.96h1.122l2.22 5.598h-.384l2.082-5.598h1.086L20.8 52.88h-1.038zm4.603-1.44v-2.322c.364 0 .624-.118.78-.354.156-.24.282-.634.378-1.182.064-.344.116-.712.156-1.104.04-.392.074-.828.102-1.308a81.1 81.1 0 00.09-1.65h4.464v5.598h.63v2.322h-1.02V50h-4.56v1.44h-1.02zm1.644-2.322h3.258v-4.716h-2.43a41.163 41.163 0 01-.12 1.818c-.024.308-.054.6-.09.876-.032.272-.07.516-.114.732-.052.3-.112.554-.18.762a1.277 1.277 0 01-.324.528zm11.224-5.598V50H36.2v-4.776L32.804 50h-.882v-6.48h1.032v4.71l3.402-4.71h.876zM42.674 50v-2.346h-1.398c-.164 0-.346-.006-.546-.018a6.974 6.974 0 01-.552-.066 2.219 2.219 0 01-1.188-.618c-.32-.324-.48-.772-.48-1.344 0-.556.15-1.002.45-1.338.304-.34.678-.56 1.122-.66.2-.048.402-.074.606-.078.208-.008.384-.012.528-.012h2.526l.006 6.48h-1.074zm-4.362 0l1.722-2.64h1.152L39.464 50h-1.152zm2.886-3.228h1.476v-2.37h-1.476c-.092 0-.214.004-.366.012a1.86 1.86 0 00-.426.072 1.112 1.112 0 00-.678.57c-.08.152-.12.332-.12.54 0 .3.084.544.252.732.168.184.372.308.612.372.132.032.262.052.39.06.132.008.244.012.336.012zm5.678 4.668v-2.322c.364 0 .624-.118.78-.354.156-.24.282-.634.378-1.182.064-.344.116-.712.156-1.104.04-.392.074-.828.102-1.308a81.1 81.1 0 00.09-1.65h4.464v5.598h.63v2.322h-1.02V50h-4.56v1.44h-1.02zm1.644-2.322h3.258v-4.716h-2.43a41.163 41.163 0 01-.12 1.818c-.024.308-.054.6-.09.876-.032.272-.07.516-.114.732-.052.3-.112.554-.18.762a1.277 1.277 0 01-.324.528zm11.225-5.598V50h-1.032v-4.776L55.317 50h-.882v-6.48h1.032v4.71l3.402-4.71h.876zm3.762 6.66c-.64 0-1.206-.138-1.698-.414a3.094 3.094 0 01-1.164-1.152l.852-.552c.236.356.518.63.846.822.328.188.702.282 1.122.282.44 0 .79-.1 1.05-.3a.99.99 0 00.39-.822c0-.256-.064-.452-.192-.588-.128-.136-.312-.23-.552-.282a4.104 4.104 0 00-.858-.078h-.672v-.882h.666c.42 0 .762-.068 1.026-.204.264-.136.396-.368.396-.696 0-.336-.124-.58-.372-.732a1.592 1.592 0 00-.876-.234c-.36 0-.704.076-1.032.228a2.95 2.95 0 00-.846.564l-.648-.726a3.515 3.515 0 011.158-.792c.44-.188.918-.282 1.434-.282.416 0 .796.074 1.14.222.348.144.624.358.828.642.208.28.312.622.312 1.026 0 .344-.08.65-.24.918-.16.268-.396.502-.708.702l-.042-.378c.264.064.482.182.654.354.176.168.306.368.39.6.084.232.126.474.126.726 0 .424-.112.788-.336 1.092-.22.3-.518.532-.894.696-.376.16-.796.24-1.26.24zm5.409 0c-.484 0-.89-.088-1.218-.264a1.88 1.88 0 01-.738-.708 1.927 1.927 0 01-.246-.96c0-.34.064-.634.192-.882.132-.252.316-.46.552-.624.236-.168.518-.3.846-.396a9.676 9.676 0 011.032-.216 35.38 35.38 0 011.164-.174c.392-.052.758-.102 1.098-.15l-.384.222c.012-.576-.104-1.002-.348-1.278-.24-.276-.656-.414-1.248-.414-.392 0-.736.09-1.032.27-.292.176-.498.464-.618.864l-1.014-.306c.156-.568.458-1.014.906-1.338.448-.324 1.038-.486 1.77-.486.588 0 1.092.106 1.512.318.424.208.728.524.912.948.092.2.15.418.174.654.024.232.036.476.036.732V50h-.948v-1.554l.222.144c-.244.524-.586.92-1.026 1.188-.436.268-.968.402-1.596.402zm.162-.894c.384 0 .716-.068.996-.204.284-.14.512-.322.684-.546.172-.228.284-.476.336-.744.06-.2.092-.422.096-.666.008-.248.012-.438.012-.57l.372.162c-.348.048-.69.094-1.026.138-.336.044-.654.092-.954.144-.3.048-.57.106-.81.174a2.639 2.639 0 00-.498.216 1.131 1.131 0 00-.372.342.89.89 0 00-.138.51c0 .176.044.344.132.504.092.16.232.29.42.39.192.1.442.15.75.15zm7.296-6.522c-.3 0-.574-.074-.822-.222a1.706 1.706 0 01-.594-.588 1.585 1.585 0 01-.222-.828h.864c0 .212.076.394.228.546a.745.745 0 00.546.228.732.732 0 00.546-.228.745.745 0 00.228-.546h.864c0 .304-.074.58-.222.828-.144.244-.342.44-.594.588a1.574 1.574 0 01-.822.222zm2.514.756V50h-1.032v-4.776L74.46 50h-.882v-6.48h1.032v4.71l3.402-4.71h.876zM80.322 50v-6.48h1.068v2.73h3.408v-2.73h1.068V50h-1.068v-2.736H81.39V50h-1.068zm8.827.18c-.484 0-.89-.088-1.218-.264a1.88 1.88 0 01-.738-.708 1.927 1.927 0 01-.246-.96c0-.34.064-.634.192-.882.132-.252.316-.46.552-.624.236-.168.518-.3.846-.396a9.676 9.676 0 011.032-.216 35.38 35.38 0 011.164-.174c.392-.052.758-.102 1.098-.15l-.384.222c.012-.576-.104-1.002-.348-1.278-.24-.276-.656-.414-1.248-.414-.392 0-.736.09-1.032.27-.292.176-.498.464-.618.864l-1.014-.306c.156-.568.458-1.014.906-1.338.448-.324 1.038-.486 1.77-.486.588 0 1.092.106 1.512.318.424.208.728.524.912.948.092.2.15.418.174.654.024.232.036.476.036.732V50h-.948v-1.554l.222.144c-.244.524-.586.92-1.026 1.188-.436.268-.968.402-1.596.402zm.162-.894c.384 0 .716-.068.996-.204.284-.14.512-.322.684-.546.172-.228.284-.476.336-.744.06-.2.092-.422.096-.666.008-.248.012-.438.012-.57l.372.162c-.348.048-.69.094-1.026.138-.336.044-.654.092-.954.144-.3.048-.57.106-.81.174a2.639 2.639 0 00-.498.216 1.131 1.131 0 00-.372.342.89.89 0 00-.138.51c0 .176.044.344.132.504.092.16.232.29.42.39.192.1.442.15.75.15zm11.972-5.766V50h-1.032v-4.776L96.855 50h-.882v-6.48h1.032v4.71l3.402-4.71h.876zm1.435 6.48v-6.48h1.068v2.73h3.408v-2.73h1.068V50h-1.068v-2.736h-3.408V50h-1.068zm8.7 0v-5.508h-2.256v-.972h5.58v.972h-2.256V50h-1.068zm7.028.18c-.636 0-1.192-.14-1.668-.42a2.942 2.942 0 01-1.104-1.182c-.264-.508-.396-1.1-.396-1.776 0-.708.13-1.32.39-1.836.26-.52.622-.92 1.086-1.2.468-.284 1.016-.426 1.644-.426.652 0 1.206.15 1.662.45.46.3.804.728 1.032 1.284.232.556.332 1.218.3 1.986h-1.08v-.384c-.012-.796-.174-1.39-.486-1.782-.312-.396-.776-.594-1.392-.594-.66 0-1.162.212-1.506.636-.344.424-.516 1.032-.516 1.824 0 .764.172 1.356.516 1.776.344.42.834.63 1.47.63.428 0 .8-.098 1.116-.294a2 2 0 00.744-.846l1.026.354a2.906 2.906 0 01-1.14 1.332 3.16 3.16 0 01-1.698.468zm-2.394-3.12v-.858h4.788v.858h-4.788zm9.412 3.12c-.608 0-1.12-.15-1.536-.45a2.846 2.846 0 01-.948-1.23 4.587 4.587 0 01-.318-1.746c0-.652.106-1.236.318-1.752.216-.516.532-.922.948-1.218.42-.296.934-.444 1.542-.444.6 0 1.116.15 1.548.45.436.296.77.702 1.002 1.218.232.516.348 1.098.348 1.746 0 .648-.116 1.23-.348 1.746a2.927 2.927 0 01-1.002 1.23c-.432.3-.95.45-1.554.45zm-2.982 2.7v-9.36h.954v4.77h.12v4.59h-1.074zm2.85-3.678c.428 0 .782-.108 1.062-.324.28-.216.49-.508.63-.876.14-.372.21-.788.21-1.248 0-.456-.07-.868-.21-1.236a1.879 1.879 0 00-.636-.876c-.284-.216-.646-.324-1.086-.324-.42 0-.768.104-1.044.312-.276.204-.482.49-.618.858a3.607 3.607 0 00-.204 1.266c0 .472.066.894.198 1.266.136.368.344.658.624.87.28.208.638.312 1.074.312zm4.111.798l-.006-6.48h1.074v2.346h1.398c.188 0 .38.004.576.012.196.008.366.026.51.054.336.064.63.176.882.336.252.16.448.378.588.654.14.272.21.61.21 1.014 0 .56-.146 1.004-.438 1.332-.288.324-.666.54-1.134.648-.16.036-.344.06-.552.072-.204.008-.398.012-.582.012h-2.526zm1.068-.882h1.476c.12 0 .254-.004.402-.012.148-.008.28-.028.396-.06.204-.06.386-.178.546-.354.164-.176.246-.428.246-.756 0-.332-.08-.588-.24-.768a1.104 1.104 0 00-.618-.354 2.122 2.122 0 00-.366-.054 5.877 5.877 0 00-.366-.012h-1.476v2.37zm8.051 1.062c-.636 0-1.192-.14-1.668-.42a2.942 2.942 0 01-1.104-1.182c-.264-.508-.396-1.1-.396-1.776 0-.708.13-1.32.39-1.836.26-.52.622-.92 1.086-1.2.468-.284 1.016-.426 1.644-.426.652 0 1.206.15 1.662.45.46.3.804.728 1.032 1.284.232.556.332 1.218.3 1.986h-1.08v-.384c-.012-.796-.174-1.39-.486-1.782-.312-.396-.776-.594-1.392-.594-.66 0-1.162.212-1.506.636-.344.424-.516 1.032-.516 1.824 0 .764.172 1.356.516 1.776.344.42.834.63 1.47.63.428 0 .8-.098 1.116-.294a2 2 0 00.744-.846l1.026.354a2.906 2.906 0 01-1.14 1.332 3.16 3.16 0 01-1.698.468zm-2.394-3.12v-.858h4.788v.858h-4.788zm9.412 3.12c-.608 0-1.12-.15-1.536-.45a2.846 2.846 0 01-.948-1.23 4.587 4.587 0 01-.318-1.746c0-.652.106-1.236.318-1.752.216-.516.532-.922.948-1.218.42-.296.934-.444 1.542-.444.6 0 1.116.15 1.548.45.436.296.77.702 1.002 1.218.232.516.348 1.098.348 1.746 0 .648-.116 1.23-.348 1.746a2.927 2.927 0 01-1.002 1.23c-.432.3-.95.45-1.554.45zm-2.982 2.7v-9.36h.954v4.77h.12v4.59h-1.074zm2.85-3.678c.428 0 .782-.108 1.062-.324.28-.216.49-.508.63-.876.14-.372.21-.788.21-1.248 0-.456-.07-.868-.21-1.236a1.879 1.879 0 00-.636-.876c-.284-.216-.646-.324-1.086-.324-.42 0-.768.104-1.044.312-.276.204-.482.49-.618.858a3.607 3.607 0 00-.204 1.266c0 .472.066.894.198 1.266.136.368.344.658.624.87.28.208.638.312 1.074.312zm5.953.978c-.484 0-.89-.088-1.218-.264a1.88 1.88 0 01-.738-.708 1.927 1.927 0 01-.246-.96c0-.34.064-.634.192-.882.132-.252.316-.46.552-.624.236-.168.518-.3.846-.396a9.676 9.676 0 011.032-.216 35.38 35.38 0 011.164-.174c.392-.052.758-.102 1.098-.15l-.384.222c.012-.576-.104-1.002-.348-1.278-.24-.276-.656-.414-1.248-.414-.392 0-.736.09-1.032.27-.292.176-.498.464-.618.864l-1.014-.306c.156-.568.458-1.014.906-1.338.448-.324 1.038-.486 1.77-.486.588 0 1.092.106 1.512.318.424.208.728.524.912.948.092.2.15.418.174.654.024.232.036.476.036.732V50h-.948v-1.554l.222.144c-.244.524-.586.92-1.026 1.188-.436.268-.968.402-1.596.402zm.162-.894c.384 0 .716-.068.996-.204.284-.14.512-.322.684-.546.172-.228.284-.476.336-.744.06-.2.092-.422.096-.666.008-.248.012-.438.012-.57l.372.162c-.348.048-.69.094-1.026.138-.336.044-.654.092-.954.144-.3.048-.57.106-.81.174a2.639 2.639 0 00-.498.216 1.131 1.131 0 00-.372.342.89.89 0 00-.138.51c0 .176.044.344.132.504.092.16.232.29.42.39.192.1.442.15.75.15zM33.359 59.52V66h-1.032v-4.776L28.93 66h-.882v-6.48h1.032v4.71l3.402-4.71h.876zm6.579 6.66c-.608 0-1.12-.15-1.536-.45a2.846 2.846 0 01-.948-1.23 4.587 4.587 0 01-.318-1.746c0-.652.106-1.236.318-1.752.216-.516.532-.922.948-1.218.42-.296.934-.444 1.542-.444.6 0 1.116.15 1.548.45.436.296.77.702 1.002 1.218.232.516.348 1.098.348 1.746 0 .648-.116 1.23-.348 1.746a2.927 2.927 0 01-1.002 1.23c-.432.3-.95.45-1.554.45zm-2.982 2.7v-9.36h.954v4.77h.12v4.59h-1.074zm2.85-3.678c.428 0 .782-.108 1.062-.324.28-.216.49-.508.63-.876.14-.372.21-.788.21-1.248 0-.456-.07-.868-.21-1.236a1.879 1.879 0 00-.636-.876c-.284-.216-.646-.324-1.086-.324-.42 0-.768.104-1.044.312-.276.204-.482.49-.618.858a3.607 3.607 0 00-.204 1.266c0 .472.066.894.198 1.266.136.368.344.658.624.87.28.208.638.312 1.074.312zm6.919.978c-.636 0-1.192-.14-1.668-.42a2.942 2.942 0 01-1.104-1.182c-.264-.508-.396-1.1-.396-1.776 0-.708.13-1.32.39-1.836.26-.52.622-.92 1.086-1.2.468-.284 1.016-.426 1.644-.426.652 0 1.206.15 1.662.45.46.3.804.728 1.032 1.284.232.556.332 1.218.3 1.986h-1.08v-.384c-.012-.796-.174-1.39-.486-1.782-.312-.396-.776-.594-1.392-.594-.66 0-1.162.212-1.506.636-.344.424-.516 1.032-.516 1.824 0 .764.172 1.356.516 1.776.344.42.834.63 1.47.63.428 0 .8-.098 1.116-.294a2 2 0 00.744-.846l1.026.354a2.906 2.906 0 01-1.14 1.332 3.16 3.16 0 01-1.698.468zm-2.394-3.12v-.858h4.788v.858h-4.788zM50.585 66v-6.48h.918l2.46 5.028 2.46-5.028h.918V66h-1.032v-4.254L54.245 66h-.564l-2.064-4.254V66h-1.032zm10.952.18c-.644 0-1.2-.146-1.668-.438a2.902 2.902 0 01-1.074-1.212c-.252-.516-.378-1.108-.378-1.776 0-.68.128-1.276.384-1.788s.618-.91 1.086-1.194c.468-.288 1.018-.432 1.65-.432.648 0 1.206.146 1.674.438.468.288.826.69 1.074 1.206.252.512.378 1.102.378 1.77 0 .676-.126 1.272-.378 1.788a2.897 2.897 0 01-1.08 1.206c-.468.288-1.024.432-1.668.432zm0-1.014c.672 0 1.172-.224 1.5-.672.328-.448.492-1.028.492-1.74 0-.732-.166-1.314-.498-1.746-.332-.436-.83-.654-1.494-.654-.452 0-.824.102-1.116.306-.292.204-.51.486-.654.846-.144.36-.216.776-.216 1.248 0 .728.168 1.312.504 1.752.336.44.83.66 1.482.66zm4.2.834v-6.48h1.069v2.73h3.408v-2.73h1.068V66h-1.068v-2.736h-3.408V66h-1.068zm8.702 0v-5.508h-2.256v-.972h5.58v.972h-2.256V66h-1.068zm5.85.18c-.484 0-.89-.088-1.218-.264a1.88 1.88 0 01-.738-.708 1.927 1.927 0 01-.246-.96c0-.34.064-.634.192-.882.132-.252.316-.46.552-.624.236-.168.518-.3.846-.396a9.676 9.676 0 011.032-.216 35.38 35.38 0 011.164-.174c.392-.052.758-.102 1.098-.15l-.384.222c.012-.576-.104-1.002-.348-1.278-.24-.276-.656-.414-1.248-.414-.392 0-.736.09-1.032.27-.292.176-.498.464-.618.864l-1.014-.306c.156-.568.458-1.014.906-1.338.448-.324 1.038-.486 1.77-.486.588 0 1.092.106 1.512.318.424.208.728.524.912.948.092.2.15.418.174.654.024.232.036.476.036.732V66h-.948v-1.554l.222.144c-.244.524-.586.92-1.026 1.188-.436.268-.968.402-1.596.402zm.162-.894c.384 0 .716-.068.996-.204.284-.14.512-.322.684-.546.172-.228.284-.476.336-.744.06-.2.092-.422.096-.666.008-.248.012-.438.012-.57l.372.162c-.348.048-.69.094-1.026.138-.336.044-.654.092-.954.144-.3.048-.57.106-.81.174a2.639 2.639 0 00-.498.216 1.131 1.131 0 00-.372.342.89.89 0 00-.138.51c0 .176.044.344.132.504.092.16.232.29.42.39.192.1.442.15.75.15zm6.663.714l.006-6.48h1.08v3.12l2.718-3.12h1.386l-2.862 3.24L92.64 66h-1.494L88.2 62.88V66h-1.086zm5.877 0v-6.48h2.76c.164 0 .34.01.528.03.192.016.366.046.522.09.348.092.634.282.858.57.228.284.342.644.342 1.08 0 .244-.038.456-.114.636-.072.18-.176.336-.312.468a1.295 1.295 0 01-.414.276c.14.024.282.078.426.162.228.124.406.298.534.522.132.224.198.51.198.858 0 .44-.106.804-.318 1.092a1.62 1.62 0 01-.876.588 2.767 2.767 0 01-.516.09c-.188.012-.37.018-.546.018h-3.072zm1.08-.87h1.932c.084 0 .184-.008.3-.024.12-.016.226-.036.318-.06a.716.716 0 00.45-.336c.096-.164.144-.342.144-.534 0-.256-.072-.464-.216-.624a.924.924 0 00-.558-.3 1.174 1.174 0 00-.276-.042 6.261 6.261 0 00-.258-.006h-1.836v1.926zm0-2.808h1.608c.112 0 .23-.006.354-.018.124-.016.232-.042.324-.078a.72.72 0 00.402-.336c.088-.16.132-.334.132-.522 0-.208-.048-.39-.144-.546a.716.716 0 00-.426-.33 1.318 1.318 0 00-.432-.078 7.872 7.872 0 00-.3-.012h-1.518v1.92zm7.055 3.858c-.484 0-.89-.088-1.218-.264a1.88 1.88 0 01-.738-.708 1.927 1.927 0 01-.246-.96c0-.34.064-.634.192-.882.132-.252.316-.46.552-.624.236-.168.518-.3.846-.396a9.676 9.676 0 011.032-.216 35.38 35.38 0 011.164-.174c.392-.052.758-.102 1.098-.15l-.384.222c.012-.576-.104-1.002-.348-1.278-.24-.276-.656-.414-1.248-.414-.392 0-.736.09-1.032.27-.292.176-.498.464-.618.864l-1.014-.306c.156-.568.458-1.014.906-1.338.448-.324 1.038-.486 1.77-.486.588 0 1.092.106 1.512.318.424.208.728.524.912.948.092.2.15.418.174.654.024.232.036.476.036.732V66h-.948v-1.554l.222.144c-.244.524-.586.92-1.026 1.188-.436.268-.968.402-1.596.402zm.162-.894c.384 0 .716-.068.996-.204.284-.14.512-.322.684-.546.172-.228.284-.476.336-.744.06-.2.092-.422.096-.666.008-.248.012-.438.012-.57l.372.162c-.348.048-.69.094-1.026.138-.336.044-.654.092-.954.144-.3.048-.57.106-.81.174a2.639 2.639 0 00-.498.216 1.131 1.131 0 00-.372.342.89.89 0 00-.138.51c0 .176.044.344.132.504.092.16.232.29.42.39.192.1.442.15.75.15zm7.482.894c-.608 0-1.12-.15-1.536-.45a2.846 2.846 0 01-.948-1.23 4.587 4.587 0 01-.318-1.746c0-.652.106-1.236.318-1.752.216-.516.532-.922.948-1.218.42-.296.934-.444 1.542-.444.6 0 1.116.15 1.548.45.436.296.77.702 1.002 1.218.232.516.348 1.098.348 1.746 0 .648-.116 1.23-.348 1.746a2.927 2.927 0 01-1.002 1.23c-.432.3-.95.45-1.554.45zm-2.982 2.7v-9.36h.954v4.77h.12v4.59h-1.074zm2.85-3.678c.428 0 .782-.108 1.062-.324.28-.216.49-.508.63-.876.14-.372.21-.788.21-1.248 0-.456-.07-.868-.21-1.236a1.879 1.879 0 00-.636-.876c-.284-.216-.646-.324-1.086-.324-.42 0-.768.104-1.044.312-.276.204-.482.49-.618.858a3.607 3.607 0 00-.204 1.266c0 .472.066.894.198 1.266.136.368.344.658.624.87.28.208.638.312 1.074.312zm5.828.798v-5.508h-2.256v-.972h5.58v.972h-2.256V66h-1.068zm9.523-6.48V66h-1.032v-4.776L119.561 66h-.882v-6.48h1.032v4.71l3.402-4.71h.876zm4.417 6.66c-.608 0-1.12-.15-1.536-.45a2.846 2.846 0 01-.948-1.23 4.587 4.587 0 01-.318-1.746c0-.652.106-1.236.318-1.752.216-.516.532-.922.948-1.218.42-.296.934-.444 1.542-.444.6 0 1.116.15 1.548.45.436.296.77.702 1.002 1.218.232.516.348 1.098.348 1.746 0 .648-.116 1.23-.348 1.746a2.927 2.927 0 01-1.002 1.23c-.432.3-.95.45-1.554.45zm-2.982 2.7v-9.36h.954v4.77h.12v4.59h-1.074zm2.85-3.678c.428 0 .782-.108 1.062-.324.28-.216.49-.508.63-.876.14-.372.21-.788.21-1.248 0-.456-.07-.868-.21-1.236a1.879 1.879 0 00-.636-.876c-.284-.216-.646-.324-1.086-.324-.42 0-.768.104-1.044.312-.276.204-.482.49-.618.858a3.607 3.607 0 00-.204 1.266c0 .472.066.894.198 1.266.136.368.344.658.624.87.28.208.638.312 1.074.312z" fill="#fff"/></svg>