<svg width="44" height="44" fill="none" xmlns="http://www.w3.org/2000/svg"><rect x=".5" y=".5" width="43" height="43" rx="21.5" stroke="#fff"/><path fill-rule="evenodd" clip-rule="evenodd" d="M27.009 17.138a1.063 1.063 0 011.46 1.152l-1.607 9.744c-.154.94-1.186 1.479-2.048 1.01a41.433 41.433 0 01-2.756-1.624c-.482-.315-1.957-1.324-1.775-2.042.155-.615 2.634-2.922 4.05-4.295.557-.539.303-.85-.354-.354-1.63 1.232-4.247 3.104-5.113 3.63-.764.465-1.162.544-1.638.465a10.876 10.876 0 01-2.331-.641c-.889-.369-.845-1.59 0-1.945l12.112-5.1z" fill="#fff"/></svg>