<svg width="44" height="44" fill="none" xmlns="http://www.w3.org/2000/svg"><rect x=".5" y=".5" width="43" height="43" rx="21.5" stroke="#fff"/><path d="M15 29.015L16.078 25a7.364 7.364 0 01-.93-3.582c0-4.09 3.328-7.418 7.415-7.418s7.418 3.327 7.418 7.418-3.327 7.419-7.418 7.419c-1.227 0-2.44-.31-3.527-.9L15 29.019v-.004zm4.24-2.589l.254.153a6.002 6.002 0 003.069.849c3.314 0 6.013-2.7 6.013-6.014S25.877 15.4 22.563 15.4a6.022 6.022 0 00-6.014 6.014c0 1.095.306 2.173.878 3.12l.157.254-.602 2.24 2.253-.602h.005z" fill="#fff"/><path fill-rule="evenodd" clip-rule="evenodd" d="M25.322 22.445c-.306-.182-.705-.386-1.061-.237-.276.114-.454.543-.633.764-.093.114-.2.131-.343.072-1.036-.412-1.83-1.104-2.402-2.058-.098-.149-.081-.264.038-.404.174-.203.39-.433.437-.708.046-.276-.08-.595-.195-.836-.145-.31-.306-.756-.62-.934-.289-.161-.666-.072-.921.136-.441.36-.654.92-.65 1.48 0 .158.022.32.06.472.09.37.259.713.45 1.04.144.246.301.483.471.717a7.37 7.37 0 002.041 1.897c.4.246.828.458 1.273.607.497.165.943.335 1.482.233.564-.106 1.12-.454 1.345-.997a.879.879 0 00.064-.51c-.077-.352-.552-.56-.836-.73v-.004z" fill="#fff"/></svg>